
<svg enable-background="new 0 0 512 512" viewBox="0 0 512 512" xmlns="http://www.w3.org/2000/svg"><g id="_x32_4_Humidity"><g><path d="m359.655 390.066c0 57.218-46.439 103.656-103.656 103.656-57.218 0-103.656-46.438-103.656-103.656s103.657-251.077 103.657-251.077 103.655 193.859 103.655 251.077z" fill="#fff"></path><path d="m160.601 189.234c0 39.002-31.655 70.656-70.656 70.656-39.002 0-70.656-31.654-70.656-70.656s70.656-171.146 70.656-171.146 70.656 132.143 70.656 171.146z" fill="#94c1ff"></path><path d="m492.711 189.234c0 39.002-31.655 70.656-70.656 70.656-39.002 0-70.656-31.654-70.656-70.656s70.656-171.145 70.656-171.145 70.656 132.142 70.656 171.145z" fill="#94c1ff"></path><g fill="#116fff"><path d="m306.192 239.732c2.535-1.178 3.632-4.188 2.451-6.723-2.693-5.794-5.435-11.538-8.128-17.077-1.216-2.508-4.24-3.558-6.76-2.34-2.515 1.221-3.563 4.247-2.342 6.762 2.663 5.49 5.386 11.18 8.059 16.924 1.174 2.534 4.188 3.629 6.72 2.454z"></path><path d="m328.937 277.597c-1.117-2.555-4.077-3.726-6.666-2.614-2.56 1.117-3.731 4.099-2.614 6.661 22.864 52.395 34.95 89.893 34.95 108.435 0 54.35-44.24 98.567-98.619 98.567-54.35 0-98.57-44.218-98.57-98.567 0-48.613 78.78-202.367 98.57-240.218 5.238 10.014 14.602 28.119 25.468 50.083 1.24 2.503 4.259 3.523 6.78 2.293 2.505-1.24 3.533-4.274 2.293-6.78-16.741-33.833-29.944-58.589-30.078-58.836-.88-1.645-2.594-2.676-4.462-2.676s-3.582 1.028-4.462 2.673c-4.254 7.963-104.228 195.63-104.228 253.461 0 59.931 48.756 108.687 108.69 108.687 59.958 0 108.739-48.756 108.739-108.687-.001-20.21-12.043-58.053-35.791-112.482z"></path><path d="m89.944 264.95c41.749 0 75.716-33.967 75.716-75.716 0-39.812-68.344-168.089-71.254-173.532-1.759-3.291-7.165-3.291-8.924 0-2.91 5.443-71.254 133.72-71.254 173.532 0 41.749 33.967 75.716 75.716 75.716zm0-235.978c15.437 29.678 65.596 128.546 65.596 160.262 0 36.171-29.426 65.596-65.596 65.596s-65.596-29.426-65.596-65.596c0-31.716 50.159-130.585 65.596-160.262z"></path><path d="m422.056 264.95c41.749 0 75.716-33.967 75.716-75.716 0-39.812-68.344-168.089-71.254-173.532-1.759-3.291-7.165-3.291-8.924 0-2.91 5.443-71.254 133.72-71.254 173.532 0 41.749 33.967 75.716 75.716 75.716zm0-235.978c15.437 29.678 65.596 128.546 65.596 160.262 0 36.171-29.426 65.596-65.596 65.596s-65.596-29.426-65.596-65.596c0-31.716 50.159-130.585 65.596-160.262z"></path><path d="m221.833 426.569c2.404 1.388 5.506.579 6.913-1.853l63.274-109.599c1.398-2.421.568-5.515-1.853-6.913-2.416-1.396-5.515-.568-6.913 1.853l-63.274 109.599c-1.398 2.421-.568 5.514 1.853 6.913z"></path><path d="m276.805 428.995c10.061 0 18.243-8.183 18.243-18.243 0-10.061-8.183-18.243-18.243-18.243s-18.243 8.183-18.243 18.243 8.183 18.243 18.243 18.243zm0-26.367c4.482 0 8.124 3.644 8.124 8.124 0 4.479-3.642 8.124-8.124 8.124s-8.124-3.644-8.124-8.124c.001-4.48 3.643-8.124 8.124-8.124z"></path><path d="m235.195 342.265c10.061 0 18.243-8.183 18.243-18.241 0-10.061-8.183-18.243-18.243-18.243-10.061 0-18.243 8.183-18.243 18.243-.001 10.058 8.182 18.241 18.243 18.241zm0-26.365c4.482 0 8.124 3.644 8.124 8.124 0 4.477-3.642 8.121-8.124 8.121s-8.124-3.644-8.124-8.121c0-4.48 3.642-8.124 8.124-8.124z"></path></g></g></g></svg>