
<svg viewBox="0 0 512 512" xmlns="http://www.w3.org/2000/svg"><g><g><path d="m348.28 344h51.72a96 96 0 0 0 4.01-191.91 136.034 136.034 0 0 0 -256.95 27.15 88.005 88.005 0 1 0 -43.06 164.76h59.72" fill="#e0e0e2"></path><circle cx="256" cy="344" fill="#78b9eb" r="88"></circle><circle cx="256" cy="344" fill="#ff5023" r="16"></circle></g><g><path d="m474.96 175.91a103.48 103.48 0 0 0 -65.73-31.5 144.042 144.042 0 0 0 -267.5 23.3 96.006 96.006 0 1 0 -37.73 184.29h56.34a95.993 95.993 0 0 0 191.32 0h48.34a104 104 0 0 0 74.96-176.09zm-218.96 248.09a80 80 0 1 1 80-80 80.093 80.093 0 0 1 -80 80zm144-88h-48.34a95.993 95.993 0 0 0 -191.32 0h-56.34a80 80 0 1 1 39.14-149.78 8.008 8.008 0 0 0 11.74-5.3 128.037 128.037 0 0 1 241.84-25.54 7.981 7.981 0 0 0 6.96 4.7 88 88 0 0 1 -3.68 175.92z"></path><path d="m256 272a72 72 0 0 0 -45 128.2 8 8 0 0 0 10-12.479 56 56 0 1 1 72.039-1.721 8 8 0 1 0 10.588 12 72 72 0 0 0 -47.627-126z"></path><path d="m264 321.38v-9.38a8 8 0 0 0 -16 0v9.38a24 24 0 1 0 16 0zm-8 30.62a8 8 0 1 1 8-8 8.011 8.011 0 0 1 -8 8z"></path></g></g></svg>